<svg xmlns="http://www.w3.org/2000/svg" width="215.599" height="219.983" viewBox="0 0 215.599 219.983">
  <path id="google-svg-roxo" d="M116.342,94.257v37.726h62.38c-2.533,16.194-18.865,47.433-62.38,47.433-37.548,0-68.182-31.1-68.182-69.432s30.634-69.428,68.182-69.428c21.354,0,35.664,9.114,43.832,16.965l29.863-28.746C170.874,10.823,146.042-.012,116.358-.012a109.992,109.992,0,1,0,0,219.983c63.464,0,105.607-44.64,105.607-107.462a100.538,100.538,0,0,0-1.721-18.216l-103.886-.045-.016.008Z" transform="translate(-6.366 0.012)" fill="#7135f2" fill-rule="evenodd"/>
</svg>
