<svg xmlns="http://www.w3.org/2000/svg" viewBox="0 0 427.63 93.75"><defs><style>.cls-1{fill:#fff;}</style></defs><g id="Camada_2" data-name="Camada 2"><g id="Layer_2" data-name="Layer 2"><path class="cls-1" d="M19.31,17.73a35.6,35.6,0,0,0-4.47,17.83l6.68-4.81A43.25,43.25,0,0,1,19.31,17.73Z"/><path class="cls-1" d="M28.31,47.85a67.07,67.07,0,0,1-6-11.09l-8.15,5.87c.16.83.36,1.63.57,2.43A32.57,32.57,0,0,1,27.1,48.72Z"/><path class="cls-1" d="M55.86,50.5,48.54,40.35,35.63,49.66a63.9,63.9,0,0,0,7.41,8l1.68.84Z"/><path class="cls-1" d="M27,33.4a61.86,61.86,0,0,0,5.93,11.15l12.91-9.31L38.47,25.09Z"/><path class="cls-1" d="M36.1,20.72,27.37,8.63c-3.21,4.14-3.75,11.18-1.51,19.48Z"/><path class="cls-1" d="M62.07,2A35.67,35.67,0,0,0,43.75.61,42.8,42.8,0,0,1,55.38,6.82Z"/><path class="cls-1" d="M50.67,10.21c-7.16-4.74-14-6.44-19-4.71l8.72,12.09Z"/><path class="cls-1" d="M63,22.81a60.71,60.71,0,0,0-8.69-9.16L42.82,22l7.32,10.15Z"/><path class="cls-1" d="M71.72,39.06a60.85,60.85,0,0,0-5.94-11.14l-12.9,9.3L60.2,47.37Z"/><path class="cls-1" d="M76.38,35.7l8.13-5.87a35.18,35.18,0,0,0-4.71-12l-9.43,6.81A67.29,67.29,0,0,1,76.38,35.7Z"/><path class="cls-1" d="M67.62,19.5l9.44-6.81a35.27,35.27,0,0,0-9.93-8.26L59,10.29A67.71,67.71,0,0,1,67.62,19.5Z"/><path class="cls-1" d="M66.35,63.35l-7-9.66L49.51,60.8l1.34.6C54.62,61.73,61.56,62.41,66.35,63.35Z"/><path class="cls-1" d="M74,43.18,63.72,50.56,72,62c.64-.83,1.48-1.89,2.41-3C75.74,54.88,75.63,49.39,74,43.18Z"/><path class="cls-1" d="M84.66,42.53a36.53,36.53,0,0,0,.7-7.57l-6.69,4.82A46.44,46.44,0,0,1,80.8,50.45l.06-.12C81.72,48.47,83.19,45.34,84.66,42.53Z"/><path class="cls-1" d="M3.26,69.35c12.52,8.43,29.36,18.79,35.54,22,9.69,5,14.79,1.33,19.73-1.59,10.75-6.36,16.3-7.88,22.45-16,5.71-7.58,11.87-22,11.87-22s3.68-13.13,3.48-14.37c-.32-1.93-3.86-1.71-6.78.89-1.61,1.43-7,13-7,13A33.06,33.06,0,0,1,78,57.78a86.76,86.76,0,0,0-5.76,7S75.12,68,75.12,69.6s-2.62,4.87-9.17,8c-5.61,2.64-15.18,2-19.42,1.68-10.71-.75-16.71-5.25-17.78-9.1-.78-2.81,11.74,5.09,19.46,6.79s19.16-1.52,22.09-4.12A4,4,0,0,0,70,66.39c-2.25-1.61-19.61-3.11-19.61-3.11A174.39,174.39,0,0,1,28.85,51.91C17.32,44.77,7.2,46,3.06,49-1.56,52.39-.5,66.81,3.26,69.35Z"/><path class="cls-1" d="M129.13,18.14a11.43,11.43,0,0,0-4.78-1.25c-1.83,0-3.21.83-3.21,2.63,0,4.39,9.51,2.35,9.51,10.93,0,4.57-3.63,7.33-8.44,7.33a23.37,23.37,0,0,1-6.51-1l.32-4.7c1.69.65,3.18,1.48,5.29,1.48,1.8,0,3.53-.9,3.53-2.87,0-4.67-9.52-2.38-9.52-11,0-.72.28-6.88,8.38-6.88a23.67,23.67,0,0,1,5.67.83Z"/><path class="cls-1" d="M133.18,13.22h13.94v4.22h-8.48v5.4h8.06v4.22h-8.06v6.09h8.89v4.22H133.18Z"/><path class="cls-1" d="M149.75,13.22h8.85c4,0,7.37,1.77,7.37,6.23a5.66,5.66,0,0,1-4.81,5.92v.06c1.77.21,2.46,1.18,3.36,4.05L167,37.37h-5.95l-1.87-6.47c-.93-3.29-1.69-3.29-3.77-3.29v9.76h-5.67Zm5.46,10.31H157a3.07,3.07,0,0,0,3.32-3.18c0-1-.31-3-3.36-3h-1.73Z"/><path class="cls-1" d="M166.53,13.22h6.09l4.25,17.61h.07l4.36-17.61h5.81l-7.3,24.15h-6.09Z"/><path class="cls-1" d="M188.29,13.22H194V37.37h-5.67Z"/><path class="cls-1" d="M197.14,13.22H206c4,0,7.37,1.77,7.37,6.23a5.66,5.66,0,0,1-4.81,5.92v.06c1.76.21,2.46,1.18,3.36,4.05l2.49,7.89h-5.95l-1.87-6.47c-.94-3.29-1.7-3.29-3.77-3.29v9.76h-5.68Zm5.47,10.31h1.76a3.07,3.07,0,0,0,3.33-3.18c0-1-.32-3-3.36-3h-1.73Z"/><path class="cls-1" d="M223.89,13.22h7.71c5.16,0,8.27,2.46,8.27,7.68,0,4.12-2.28,7.65-7.58,7.65h-2.73v8.82h-5.67Zm7.26,11.11c1.77,0,3-1.21,3-3.46s-1.11-3.43-3.36-3.43h-1.49v6.89Z"/><path class="cls-1" d="M252.46,32h-7.57l-1.66,5.4h-5.47l8-24.15H252l7.75,24.15H254Zm-3.59-14.11h-.07l-2.87,10h5.43Z"/><path class="cls-1" d="M260.87,13.22h8.86c4,0,7.37,1.77,7.37,6.23a5.66,5.66,0,0,1-4.81,5.92v.06c1.76.21,2.45,1.18,3.35,4.05l2.49,7.89h-5.95l-1.86-6.47c-.94-3.29-1.7-3.29-3.77-3.29v9.76h-5.68Zm5.47,10.31h1.76a3.07,3.07,0,0,0,3.32-3.18c0-1-.31-3-3.35-3h-1.73Z"/><path class="cls-1" d="M292.63,32h-7.58l-1.66,5.4h-5.46l8-24.15h6.23l7.75,24.15h-5.81ZM289,17.86H289l-2.87,10h5.43Z"/><path class="cls-1" d="M119.51,54.65h-5.26V50.29h16.19v4.36h-5.26V74.44h-5.67Z"/><path class="cls-1" d="M131.9,50.29h8.85c4,0,7.37,1.77,7.37,6.23a5.66,5.66,0,0,1-4.81,5.92v.06c1.77.21,2.46,1.18,3.36,4l2.49,7.89h-5.95L141.34,68c-.93-3.29-1.7-3.29-3.77-3.29v9.76H131.9Zm5.46,10.31h1.77a3.07,3.07,0,0,0,3.32-3.18c0-1-.31-3.05-3.36-3.05h-1.73Z"/><path class="cls-1" d="M163.65,69h-7.57l-1.66,5.4H149l8-24.15h6.22L171,74.44h-5.81Zm-3.59-14.11H160l-2.87,10h5.43Z"/><path class="cls-1" d="M172,50.29h6.64l7,16.75h.07V50.29h5V74.44H184L177,57h-.07V74.44h-5Z"/><path class="cls-1" d="M206.9,55.2A11.53,11.53,0,0,0,202.13,54c-1.84,0-3.22.83-3.22,2.63,0,4.39,9.51,2.35,9.51,10.93,0,4.57-3.63,7.33-8.44,7.33a23.28,23.28,0,0,1-6.5-1l.31-4.7c1.7.65,3.18,1.48,5.29,1.48,1.8,0,3.53-.9,3.53-2.87,0-4.67-9.51-2.39-9.51-11,0-.72.28-6.88,8.37-6.88a23.6,23.6,0,0,1,5.67.83Z"/><path class="cls-1" d="M211,50.29h13.39v4.22h-7.92v5.61H224v4.22h-7.6v10.1H211Z"/><path class="cls-1" d="M235.75,49.88c7,0,10.28,5.39,10.28,12.49s-3.32,12.48-10.28,12.48-10.24-5.39-10.24-12.48S228.8,49.88,235.75,49.88Zm0,20.89c3.29,0,4.47-3.77,4.47-8.4S239,54,235.75,54s-4.42,3.77-4.42,8.41S232.47,70.77,235.75,70.77Z"/><path class="cls-1" d="M248.52,50.29h8.86c4,0,7.37,1.77,7.37,6.23a5.66,5.66,0,0,1-4.81,5.92v.06c1.76.21,2.45,1.18,3.35,4l2.49,7.89h-5.95L258,68c-.93-3.29-1.69-3.29-3.77-3.29v9.76h-5.67ZM254,60.6h1.76a3.07,3.07,0,0,0,3.32-3.18c0-1-.31-3.05-3.35-3.05H254Z"/><path class="cls-1" d="M287.37,55.34h-.07l-5.43,19.1h-3.74l-5.22-19.1h-.07v19.1h-5.19V50.29h8.55l3.91,15.54h.07l4.22-15.54h8.16V74.44h-5.19Z"/><path class="cls-1" d="M308.37,69H300.8l-1.66,5.4h-5.47l8-24.15h6.22l7.75,24.15h-5.81Zm-3.6-14.11h-.06l-2.88,10h5.43Z"/><path class="cls-1" d="M316.78,50.29h8.86c4,0,7.36,1.77,7.36,6.23a5.65,5.65,0,0,1-4.8,5.92v.06c1.76.21,2.45,1.18,3.35,4L334,74.44h-6L326.22,68c-.93-3.29-1.69-3.29-3.77-3.29v9.76h-5.67Zm5.47,10.31H324a3.07,3.07,0,0,0,3.32-3.18c0-1-.31-3.05-3.35-3.05h-1.73Z"/><path class="cls-1" d="M340.24,50.29h6.09l4.25,17.61h.07L355,50.29h5.81l-7.3,24.15h-6.09Z"/><path class="cls-1" d="M362,50.29h5.67V74.44H362Z"/><path class="cls-1" d="M370.86,50.29h8.57c5.44,0,10.8,3.19,10.8,12.28,0,8.34-5.43,11.87-11.52,11.87h-7.85Zm5.67,19.93h1.8c4.11,0,5.95-3.25,5.95-7.65,0-5-1.91-8.06-6.3-8.06h-1.45Z"/><path class="cls-1" d="M404.55,69H397l-1.66,5.4h-5.46l8-24.15h6.23l7.75,24.15H406ZM401,54.93h-.07L398,65h5.43Z"/><path class="cls-1" d="M426.1,55.2A11.49,11.49,0,0,0,421.33,54c-1.83,0-3.22.83-3.22,2.63,0,4.39,9.52,2.35,9.52,10.93,0,4.57-3.64,7.33-8.44,7.33a23.37,23.37,0,0,1-6.51-1l.31-4.7c1.7.65,3.19,1.48,5.3,1.48,1.8,0,3.53-.9,3.53-2.87,0-4.67-9.52-2.39-9.52-11,0-.72.28-6.88,8.37-6.88a23.68,23.68,0,0,1,5.68.83Z"/></g></g></svg>